<?xml version="1.0" standalone="no"?>
<!DOCTYPE svg PUBLIC "-//W3C//DTD SVG 20010904//EN"
 "http://www.w3.org/TR/2001/REC-SVG-20010904/DTD/svg10.dtd">
<svg version="1.0" xmlns="http://www.w3.org/2000/svg"
 width="257.000000pt" height="257.000000pt" viewBox="0 0 257.000000 257.000000"
 preserveAspectRatio="xMidYMid meet">
<metadata>
Created by potrace 1.11, written by Peter Selinger 2001-2013
</metadata>
<g transform="translate(0.000000,257.000000) scale(0.100000,-0.100000)"
fill="#000000" stroke="none">
<path d="M1182 2229 c-65 -11 -169 -61 -223 -108 -48 -40 -115 -136 -134 -192
-8 -22 -18 -69 -21 -105 l-7 -64 -56 0 c-32 0 -62 -5 -69 -12 -21 -21 -13 -46
18 -60 17 -7 30 -16 30 -20 0 -4 10 -8 23 -10 14 -2 23 -11 25 -25 2 -12 10
-27 18 -33 12 -11 14 -6 14 29 0 28 -4 41 -12 40 -7 -1 -24 0 -38 1 -17 2 -11
5 20 11 25 5 281 8 569 7 511 -2 525 -2 535 17 6 11 15 23 21 27 5 4 6 11 1
15 -4 4 -203 9 -442 11 -272 2 -434 6 -434 12 0 6 21 10 48 11 26 0 41 3 35 6
-7 2 -13 11 -13 18 0 19 -41 30 -51 14 -5 -9 -10 -5 -15 14 -3 16 -3 31 1 35
9 9 655 9 655 0 0 -5 -9 -8 -19 -8 -12 0 -21 -8 -24 -22 l-4 -23 -2 23 -1 22
-255 0 -255 0 0 -39 0 -40 315 -1 315 0 0 40 c0 25 -5 43 -14 46 -8 3 -12 13
-9 25 5 19 3 28 -28 92 -22 47 -109 137 -173 178 -63 41 -100 54 -195 70 -64
10 -76 10 -149 -2z m168 -389 c0 -5 -4 -10 -10 -10 -5 0 -10 5 -10 10 0 6 5
10 10 10 6 0 10 -4 10 -10z m-563 -217 c-3 -10 -5 -4 -5 12 0 17 2 24 5 18 2
-7 2 -21 0 -30z"/>
<path d="M1751 1931 c-8 -5 -9 -11 -3 -15 5 -3 12 1 16 9 6 17 6 18 -13 6z"/>
<path d="M1782 1800 c0 -14 2 -19 5 -12 2 6 2 18 0 25 -3 6 -5 1 -5 -13z"/>
<path d="M1860 1802 c0 -12 3 -12 15 -2 8 7 15 13 15 15 0 1 -7 2 -15 2 -8 0
-15 -7 -15 -15z"/>
<path d="M1940 1729 c0 -15 18 -19 23 -6 3 8 -1 14 -9 14 -8 0 -14 -4 -14 -8z"/>
<path d="M1746 1663 c7 -4 14 -17 17 -28 5 -16 5 -15 4 4 -1 14 -9 26 -17 28
-10 3 -11 2 -4 -4z"/>
<path d="M1741 1604 c0 -11 3 -14 6 -6 3 7 2 16 -1 19 -3 4 -6 -2 -5 -13z"/>
<path d="M2073 1612 c-7 -5 -9 -13 -4 -21 12 -19 30 -10 22 11 -3 10 -11 14
-18 10z"/>
<path d="M1017 1603 c-9 -2 -15 -9 -12 -14 3 -5 0 -6 -8 -3 -8 3 -19 -2 -26
-10 -10 -12 -7 -13 26 -5 21 5 67 9 103 10 l65 1 -35 13 c-35 14 -80 17 -113
8z"/>
<path d="M1415 1595 l-40 -13 70 -1 c39 -1 85 -5 103 -10 42 -13 32 6 -14 25
-40 17 -66 17 -119 -1z"/>
<path d="M1775 1566 c10 -14 19 -26 22 -26 7 0 -17 39 -28 46 -6 3 -3 -5 6
-20z"/>
<path d="M1801 1574 c0 -11 3 -14 6 -6 3 7 2 16 -1 19 -3 4 -6 -2 -5 -13z"/>
<path d="M2140 1520 c0 -11 2 -20 5 -20 2 0 9 9 15 20 9 16 8 20 -5 20 -8 0
-15 -9 -15 -20z"/>
<path d="M1804 1516 c-3 -8 -4 -23 -1 -33 3 -12 5 -9 6 9 0 14 7 29 14 31 9 4
9 6 -1 6 -7 1 -15 -5 -18 -13z"/>
<path d="M1786 1445 c-9 -26 -7 -32 5 -12 6 10 9 21 6 23 -2 3 -7 -2 -11 -11z"/>
<path d="M1761 1394 c0 -11 3 -14 6 -6 3 7 2 16 -1 19 -3 4 -6 -2 -5 -13z"/>
<path d="M1721 1364 c0 -11 3 -14 6 -6 3 7 2 16 -1 19 -3 4 -6 -2 -5 -13z"/>
<path d="M1710 1306 c0 -8 -3 -23 -7 -33 -6 -16 -5 -16 10 -4 18 15 23 51 7
51 -5 0 -10 -6 -10 -14z"/>
<path d="M1215 1248 c-11 -6 -23 -15 -26 -20 -3 -6 -23 -3 -45 6 l-39 16 30
-25 c17 -13 42 -36 56 -50 46 -46 111 -43 164 7 11 10 34 30 50 44 l30 24 -36
-16 c-35 -16 -37 -16 -58 5 -24 24 -92 29 -126 9z"/>
<path d="M1675 1220 c-4 -14 -12 -28 -18 -32 -5 -3 1 -5 16 -5 14 1 23 5 20
10 -2 4 2 7 9 7 9 0 9 3 2 8 -6 4 -13 14 -16 22 -3 11 -7 8 -13 -10z"/>
<path d="M1601 1113 c-17 -20 -28 -39 -26 -42 3 -2 6 -2 8 0 2 2 15 21 30 42
36 48 28 48 -12 0z"/>
<path d="M1542 1054 c-7 -7 -11 -19 -10 -26 2 -7 -12 -15 -32 -19 -19 -3 -29
-7 -22 -8 6 0 12 -6 12 -12 0 -5 -6 -7 -12 -3 -9 5 -10 4 -3 -4 13 -13 101 -4
103 12 0 6 3 21 6 33 6 29 -23 48 -42 27z"/>
<path d="M920 951 c-69 -5 -92 -11 -120 -31 l-35 -25 127 -3 128 -3 15 -36 c8
-19 15 -37 15 -39 0 -2 -76 -4 -170 -4 l-170 0 0 -30 0 -30 196 0 c195 0 195
0 242 -27 40 -24 58 -28 122 -28 64 0 82 4 122 28 l47 27 200 0 200 0 4 -27
c4 -24 2 4 -5 72 -2 19 -8 20 -175 17 -95 -2 -173 -1 -173 2 0 3 8 21 17 41
l17 35 135 0 135 0 -34 25 c-19 14 -42 25 -52 25 -10 0 -18 5 -18 10 0 6 -45
10 -115 10 l-115 0 0 -29 c0 -91 -94 -181 -190 -181 -80 0 -173 74 -185 147
-4 21 -8 43 -10 48 -3 13 -41 14 -155 6z"/>
<path d="M1735 950 c3 -5 8 -10 11 -10 2 0 4 5 4 10 0 6 -5 10 -11 10 -5 0 -7
-4 -4 -10z"/>
<path d="M708 640 l4 -30 564 0 564 0 0 30 0 30 -568 0 -569 0 5 -30z"/>
<path d="M1842 580 c0 -14 2 -19 5 -12 2 6 2 18 0 25 -3 6 -5 1 -5 -13z"/>
<path d="M710 500 l0 -30 573 0 c325 0 566 4 558 9 -9 6 -10 10 -2 12 7 3 9
12 6 22 -7 16 -46 17 -571 17 l-564 0 0 -30z"/>
<path d="M1840 425 l0 -35 -566 0 -565 0 3 -35 3 -36 540 1 c437 0 545 -3 566
-14 l26 -13 -5 48 c-4 39 -1 50 12 55 20 8 21 50 1 58 -12 4 -15 -3 -15 -29z"/>
<path d="M750 296 c0 -2 7 -9 15 -16 13 -11 14 -10 9 4 -5 14 -24 23 -24 12z"/>
<path d="M1810 285 c0 -8 5 -15 10 -15 6 0 10 7 10 15 0 8 -4 15 -10 15 -5 0
-10 -7 -10 -15z"/>
<path d="M822 271 c-9 -5 0 -10 27 -14 45 -6 81 0 81 14 0 11 -91 11 -108 0z"/>
<path d="M1045 270 c3 -5 16 -10 28 -10 18 0 19 2 7 10 -20 13 -43 13 -35 0z"/>
<path d="M1365 270 c3 -5 16 -10 28 -10 18 0 19 2 7 10 -20 13 -43 13 -35 0z"/>
<path d="M1730 270 c0 -5 14 -10 32 -10 36 0 33 9 -6 16 -14 2 -26 0 -26 -6z"/>
</g>
</svg>
